<svg width="134" height="134" fill="none" xmlns="http://www.w3.org/2000/svg"><g clip-path="url(#clip0)" fill="#fff"><path d="M132.622 110.971l-56.72-98.222a10.278 10.278 0 00-17.804 0l-56.72 98.222a10.277 10.277 0 008.901 15.419h113.442a10.278 10.278 0 008.901-15.419zm-122.343 5.14L67 17.889l56.721 98.222H10.279z"/><path d="M59.885 53.277l2.947 33.748a4.183 4.183 0 008.335 0l2.948-33.748a7.143 7.143 0 10-14.231 0zM67 104.712a5.895 5.895 0 100-11.79 5.895 5.895 0 000 11.79z"/></g><defs><clipPath id="clip0"><path fill="#fff" d="M0 0h134v134H0z"/></clipPath></defs></svg>