<svg width="20" height="15" fill="none" xmlns="http://www.w3.org/2000/svg"><path d="M19.61 4.96c-.9.704-2.032 1.563-6.016 4.454C12.813 10 11.367 11.29 10 11.29c-1.406 0-2.813-1.289-3.633-1.875C2.383 6.524 1.25 5.664.352 4.961.195 4.844 0 4.96 0 5.156v7.969A1.85 1.85 0 001.875 15h16.25C19.141 15 20 14.18 20 13.125V5.156c0-.195-.234-.312-.39-.195zM10 10c.898.04 2.188-1.133 2.852-1.602 5.195-3.75 5.585-4.101 6.757-5.039A.889.889 0 0020 2.617v-.742C20 .859 19.14 0 18.125 0H1.875C.82 0 0 .86 0 1.875v.742c0 .313.117.586.352.742 1.171.938 1.562 1.29 6.757 5.04.664.468 1.954 1.64 2.891 1.601z" fill="#4D8F07"/></svg>