<svg width="68" height="68" fill="none" xmlns="http://www.w3.org/2000/svg"><path d="M61.987 14.334a.93.93 0 00-.69-.648L55.598 12.4 54.31 6.7a.93.93 0 00-1.564-.452l-6.553 6.554a26.514 26.514 0 109.003 9.003l6.555-6.556a.93.93 0 00.235-.916zm-4.838 21.173a24.653 24.653 0 11-12.312-21.345l-3.009 3.01a.92.92 0 00-.072.093 20.487 20.487 0 108.975 8.987.91.91 0 00.097-.08l3.01-3.009a24.57 24.57 0 013.311 12.344zm-8.624-9.41a18.573 18.573 0 11-6.623-6.63l.979 4.337-.94.94a14.359 14.359 0 101.316 1.314l.939-.939 4.329.978zm-12.035 9.41a4.013 4.013 0 11-1.91-3.402l-2.745 2.745a.93.93 0 101.315 1.314l2.745-2.745c.39.627.595 1.35.595 2.088zm-.571-4.74a5.88 5.88 0 101.314 1.314l4.706-4.706a12.49 12.49 0 11-1.314-1.314l-4.706 4.705zm17.448-9.763l-3.489 3.489-.523-.118-.02-.005-4.657-1.048-1.173-5.197 9.367-9.369 1.045 4.625a.93.93 0 00.702.703l4.625 1.045-5.877 5.875z" fill="#fff"/></svg>