<svg width="58" height="58" fill="none" xmlns="http://www.w3.org/2000/svg"><path d="M55.482 23.31C55.482 10.457 45.025 0 32.172 0a23.125 23.125 0 00-13.848 4.558 23.203 23.203 0 00-8.337 11.579l-.04.123-1.015 6.277L2.518 34.17v4.346h5.336l2.15 11.746h12.114L23.946 58h27.69l-3.205-17.986a23.35 23.35 0 007.051-16.704zM26.635 54.602l-1.828-7.738h-11.97l-2.15-11.747h-4.77v-.072l6.276-11.383 1.067-6.601A19.856 19.856 0 0132.172 3.398c10.98 0 19.912 8.933 19.912 19.912 0 5.988-2.816 11.595-7.326 15.46l2.82 15.832H26.636z" fill="#fff"/><path d="M32.26 7.552c-8.54 0-15.488 6.948-15.488 15.487 0 8.54 6.948 15.487 15.487 15.487 8.54 0 15.487-6.947 15.487-15.487S40.8 7.552 32.26 7.552zm0 27.576c-6.666 0-12.09-5.423-12.09-12.089 0-6.665 5.423-12.088 12.09-12.088 6.665 0 12.088 5.423 12.088 12.088 0 6.666-5.423 12.089-12.089 12.089z" fill="#fff"/><path d="M30.573 24.815l-3.859-3.844-2.398 2.408 6.207 6.183 9.888-9.443-2.347-2.458-7.49 7.154z" fill="#fff"/></svg>