<svg width="35" height="35" fill="none" xmlns="http://www.w3.org/2000/svg"><g clip-path="url(#clip0)"><path d="M29.043 18.999c-.566-.715-.404-1.032 0-1.671.007-.008 4.678-6.462 5.16-8.651l.002-.002c.24-.797 0-1.384-1.156-1.384h-3.827c-.974 0-1.423.504-1.664 1.067 0 0-1.948 4.663-4.704 7.686-.89.874-1.301 1.154-1.787 1.154-.24 0-.611-.28-.611-1.078V8.675c0-.956-.273-1.384-1.08-1.384H13.36c-.611 0-.974.447-.974.862 0 .907 1.378 1.116 1.52 3.668v5.537c0 1.214-.22 1.437-.708 1.437-1.3 0-4.458-4.683-6.33-10.042-.377-1.04-.746-1.46-1.727-1.46H1.312C.22 7.293 0 7.796 0 8.359c0 .995 1.3 5.94 6.05 12.473 3.164 4.46 7.62 6.876 11.675 6.876 2.436 0 2.734-.536 2.734-1.46 0-4.26-.22-4.663 1-4.663.566 0 1.54.28 3.815 2.43 2.6 2.551 3.028 3.693 4.483 3.693h3.827c1.09 0 1.643-.536 1.326-1.595-.728-2.227-5.646-6.808-5.867-7.114z" fill="#fff"/></g><defs><clipPath id="clip0"><path fill="#fff" d="M0 0h35v35H0z"/></clipPath></defs></svg>