<svg width="101" height="100" fill="none" xmlns="http://www.w3.org/2000/svg"><path d="M95.95 82.636c-10.047-5.25-17.753-8.2-24.613-9.327l.71-.958c.337-.338.505-.835.337-1.333L70.806 64.8c4.172-5.814 6.628-13.084 6.628-19.997v-6.64h5.05c1.01 0 1.682-.658 1.682-1.654 0-.995-.672-1.662-1.682-1.662H80.8v-1.663c0-13.102-8.753-24.224-21.883-27.877v-.329C58.917 2.32 56.73 0 53.867 0h-6.733c-2.694 0-5.05 2.16-5.05 4.978v.329C28.954 8.96 20.2 20.08 20.2 33.184v1.663h-1.684c-1.01 0-1.683.667-1.683 1.662 0 .996.673 1.653 1.683 1.653h5.05v6.64c0 6.914 2.456 14.184 6.627 19.998l-1.577 6.218c0 .338 0 .995.337 1.333l.71.958c-6.86 1.128-14.566 4.077-24.613 9.327C1.852 84.13 0 87.286 0 90.77v7.13c0 .995.674 1.662 1.684 1.662h97.633c1.009 0 1.683-.667 1.683-1.663V90.77c0-3.325-2.02-6.471-5.05-8.134zM26.735 20.964l11.646 2.264h.336c.505 0 .842-.16 1.347-.329.506-.329.673-.995.506-1.493l-2.312-11.083a27.058 27.058 0 013.826-1.485v4.434c0 .995.673 1.662 1.683 1.662s1.683-.667 1.683-1.662V4.978a1.68 1.68 0 011.684-1.662h6.733c.842 0 1.683.667 1.683 1.662v8.294c0 .995.674 1.662 1.684 1.662 1.01 0 1.682-.667 1.682-1.662V8.838a28.47 28.47 0 013.949 1.54L60.6 21.238c0 .498.169 1.164.505 1.493.336.338.674.498 1.179.498h.336l11.57-2.395c2.089 3.672 3.244 7.88 3.244 12.351v1.663H23.567v-1.663c0-4.414 1.128-8.575 3.168-12.22zm47.332 17.198v6.64c0 7.233-2.518 13.667-6.299 18.551l-.098.038c-.168.16-.336.329-.505.498a28.952 28.952 0 01-2.675 3.043c-3.963 3.635-8.69 5.842-13.246 6.058a1.978 1.978 0 00-.744-.14c-.258 0-.492.046-.7.14-2.79-.122-5.643-.995-8.348-2.48-2.741-1.559-5.319-3.794-7.617-6.621a22.882 22.882 0 00-.505-.498l-.098-.038c-3.781-4.884-6.298-11.318-6.298-18.55v-6.64h47.133zM3.367 90.77a5.69 5.69 0 013.199-5.147c10.73-5.617 18.453-8.444 25.334-9.28l10.046 13.61-1.276 6.293H3.367V90.77zm44.567-14.596l-4.538 10.07-2.222-3.016-7.002-9.552c-.053-.057-.113-.104-.174-.16l-1.846-2.498.673-2.987c.229.244.46.479.694.713 3.951 3.983 8.88 6.763 14.415 7.43zm20.241-8.143l.674 2.987-1.72 2.33c-.11.084-.21.196-.3.328l-7.002 9.552-2.222 3.015-4.538-10.069c5.424-.648 10.267-3.334 14.178-7.195.043-.037.087-.084.13-.131l.031-.028c.26-.254.516-.517.769-.79zM49.491 81.096l1.02-2.254 2.515 5.457 1.645 3.644h-8.21l3.03-6.847zm-4.31 10.172h10.626l.962 4.978H44.17l1.01-4.978zM36.53 19.415l-7.743-1.494c1.551-1.991 3.532-3.832 5.678-5.41.183-.131.368-.254.554-.376l1.51 7.28zm29.453-7.28c.187.122.372.245.556.376 2.145 1.578 4.126 3.419 5.677 5.41l-7.743 1.494 1.51-7.28zm31.652 84.111H60.33l-1.276-6.293 10.155-13.76c6.856 1.024 14.718 3.841 25.225 9.261 2.02 1.165 3.199 3.156 3.199 5.316v5.476z" fill="#4D8F07"/></svg>