<svg width="109" height="100" fill="none" xmlns="http://www.w3.org/2000/svg"><path d="M107.542 68.91a7.257 7.257 0 00-4.409-3.393 7.263 7.263 0 00-5.515.721L79.89 76.473a7.208 7.208 0 00-4.107-2.962l-27.127-7.273a12.728 12.728 0 00-6.382-.054l-9.546 2.396v-3.126a1.818 1.818 0 00-1.818-1.818H16.364a1.818 1.818 0 00-1.819 1.818v1.819H1.819A1.818 1.818 0 000 69.09v25.454a1.818 1.818 0 001.818 1.819h12.728v1.818A1.818 1.818 0 0016.364 100h14.545a1.818 1.818 0 001.818-1.818v-2.513l2.339 1.17a12.775 12.775 0 005.69 1.343h27.231a12.748 12.748 0 006.364-1.706l30.545-17.636a7.294 7.294 0 002.646-9.93zM3.636 92.726V70.91h10.91v21.818H3.636zm25.455 3.637H18.18v-29.09h10.91v29.09zm73.982-20.666L72.527 93.335a9.091 9.091 0 01-4.545 1.218H40.756a9.139 9.139 0 01-4.063-.96l-3.966-1.99V72.332l10.426-2.607a9.137 9.137 0 014.56.038l27.127 7.272a3.638 3.638 0 11-1.882 7.024l-21.685-5.814a1.818 1.818 0 00-.94 3.512l21.681 5.819c.618.165 1.255.25 1.895.25a7.186 7.186 0 007.21-7.849L99.43 69.404a3.7 3.7 0 014.956 1.33 3.65 3.65 0 01-1.314 4.964zM49.09 43.636h6.825c.103.262.207.515.316.76l-4.825 4.828a1.818 1.818 0 000 2.57l7.709 7.71a1.818 1.818 0 002.57 0l4.826-4.826c.247.108.5.213.762.317v6.823a1.818 1.818 0 001.818 1.818H80a1.819 1.819 0 001.818-1.818v-6.823c.262-.104.515-.21.762-.317l4.826 4.826a1.87 1.87 0 002.57 0l7.71-7.71a1.818 1.818 0 000-2.57l-4.826-4.828c.11-.245.213-.498.316-.76H100a1.82 1.82 0 001.818-1.818V30.91A1.817 1.817 0 00100 29.091h-6.824a21.315 21.315 0 00-.316-.762l4.826-4.825a1.818 1.818 0 000-2.571l-7.71-7.71a1.818 1.818 0 00-2.57 0L82.58 18.05c-.247-.107-.5-.213-.762-.316V10.91A1.818 1.818 0 0080 9.091H69.09a1.818 1.818 0 00-1.817 1.818v6.824c-.262.103-.515.209-.762.316l-4.825-4.825a1.871 1.871 0 00-2.571 0l-7.71 7.709a1.818 1.818 0 000 2.57l4.826 4.826c-.11.247-.213.5-.316.762H49.09a1.818 1.818 0 00-1.818 1.818v10.91a1.818 1.818 0 001.818 1.817zm1.82-10.909h6.29a1.818 1.818 0 001.73-1.261c.283-.91.651-1.79 1.1-2.63a1.818 1.818 0 00-.308-2.158l-4.45-4.46 5.137-5.138 4.46 4.46a1.818 1.818 0 002.16.31c.839-.452 1.72-.82 2.63-1.1a1.818 1.818 0 001.25-1.732v-6.29h7.273v6.29a1.818 1.818 0 001.26 1.731c.91.281 1.79.65 2.629 1.1a1.819 1.819 0 002.16-.309l4.46-4.46 5.136 5.138-4.458 4.46a1.819 1.819 0 00-.309 2.158c.45.84.818 1.72 1.1 2.63a1.819 1.819 0 001.73 1.261h6.292V40H91.89a1.818 1.818 0 00-1.731 1.262c-.282.91-.65 1.79-1.1 2.629a1.819 1.819 0 00.31 2.158l4.457 4.46-5.136 5.138-4.46-4.46a1.818 1.818 0 00-2.16-.309c-.839.45-1.72.82-2.63 1.1a1.818 1.818 0 00-1.26 1.731V60h-7.27v-6.29a1.819 1.819 0 00-1.26-1.732c-.91-.28-1.79-.65-2.629-1.1a1.818 1.818 0 00-2.16.31l-4.46 4.46-5.127-5.139 4.458-4.46a1.819 1.819 0 00.309-2.158c-.45-.84-.818-1.72-1.1-2.63A1.818 1.818 0 0057.2 40h-6.29v-7.273z" fill="#4D8F07"/><path d="M74.545 47.273a10.909 10.909 0 1110.91-10.91 10.92 10.92 0 01-10.91 10.91zm0-18.182a7.273 7.273 0 100 14.546 7.273 7.273 0 000-14.546zM29.09 36.364h-7.272A1.818 1.818 0 0120 34.545v-3.192l-2.26 2.26a1.818 1.818 0 01-2.57 0l-5.146-5.146a1.818 1.818 0 010-2.57l2.26-2.26H9.09a1.818 1.818 0 01-1.818-1.819v-7.273a1.818 1.818 0 011.818-1.818h3.193l-2.26-2.26a1.818 1.818 0 010-2.57l5.145-5.146a1.818 1.818 0 012.571 0L20 5.01V1.818A1.818 1.818 0 0121.818 0h7.273a1.818 1.818 0 011.818 1.818v3.193l2.26-2.26a1.818 1.818 0 012.571 0l5.145 5.145a1.818 1.818 0 010 2.571l-2.26 2.26h3.193a1.818 1.818 0 011.818 1.819v7.272a1.818 1.818 0 01-1.818 1.818h-3.192l2.26 2.26a1.818 1.818 0 010 2.571l-5.146 5.146a1.818 1.818 0 01-2.57 0l-2.26-2.26v3.192a1.818 1.818 0 01-1.82 1.819zm-5.454-3.637h3.637v-4.272a1.818 1.818 0 011.296-1.742c.252-.079.495-.181.727-.306a1.818 1.818 0 012.13.326l3.023 3.023 2.575-2.574L34 24.158a1.819 1.819 0 01-.325-2.129c.126-.235.229-.482.307-.738A1.817 1.817 0 0135.727 20H40v-3.636h-4.273a1.819 1.819 0 01-1.74-1.291 4.062 4.062 0 00-.307-.739 1.818 1.818 0 01.325-2.128l3.024-3.024-2.574-2.575-3.024 3.03a1.818 1.818 0 01-2.13.325 4.193 4.193 0 00-.726-.306 1.818 1.818 0 01-1.302-1.747V3.636h-3.637V7.91a1.819 1.819 0 01-1.296 1.742 4.195 4.195 0 00-.727.305 1.818 1.818 0 01-2.13-.325l-3.028-3.024-2.575 2.575 3.03 3.024a1.818 1.818 0 01.325 2.129c-.127.235-.23.482-.308.738a1.818 1.818 0 01-1.74 1.29H10.91V20h4.273a1.818 1.818 0 011.74 1.29c.078.257.18.504.307.74a1.818 1.818 0 01-.325 2.128l-3.024 3.024 2.575 2.574 3.023-3.029a1.818 1.818 0 012.13-.325c.232.124.475.226.727.305a1.817 1.817 0 011.301 1.747v4.273z" fill="#4D8F07"/><path d="M25.455 25.454a7.272 7.272 0 110-14.544 7.272 7.272 0 010 14.544zm0-10.909a3.636 3.636 0 100 7.273 3.636 3.636 0 000-7.273z" fill="#4D8F07"/></svg>