<svg width="134" height="100" fill="none" xmlns="http://www.w3.org/2000/svg"><path d="M10.098 22.258h20.548a1.948 1.948 0 100-3.896H10.098a1.948 1.948 0 100 3.896zm19.844 9.38h-8.117a1.948 1.948 0 100 3.897h8.117a1.948 1.948 0 100-3.897zM1.948 45.15h19.877a1.948 1.948 0 100-3.898H1.948a1.948 1.948 0 100 3.897zm30.646 34.54a1.948 1.948 0 00-1.948-1.948H10.098a1.948 1.948 0 100 3.896h20.548a1.948 1.948 0 001.948-1.948zm-2.652-15.225h-8.117a1.948 1.948 0 100 3.897h8.117a1.948 1.948 0 100-3.897zM23.773 56.8a1.948 1.948 0 00-1.948-1.95H1.948a1.948 1.948 0 100 3.898h19.877a1.948 1.948 0 001.948-1.949zm59.234-30.224a1.948 1.948 0 001.948-1.949v-2.974a1.948 1.948 0 10-3.896 0v2.974c0 1.077.872 1.949 1.948 1.949zm21.422 2.002a1.95 1.95 0 00-2.756 0l-2.103 2.103a1.948 1.948 0 102.756 2.755l2.103-2.102a1.95 1.95 0 000-2.756zm3.951 19.474a1.948 1.948 0 100 3.896h2.973a1.948 1.948 0 100-3.896h-2.973zm-6.054 18.511a1.95 1.95 0 00-2.756 2.756l2.103 2.103a1.95 1.95 0 002.756-2.756l-2.103-2.103zm-21.267 8.81v2.973a1.948 1.948 0 103.896 0v-2.973a1.948 1.948 0 10-3.896 0zm-17.371-8.81l-2.103 2.103a1.948 1.948 0 002.755 2.756l2.103-2.103a1.948 1.948 0 00-2.755-2.756zM54.66 48.052a1.948 1.948 0 100 3.896h2.974a1.948 1.948 0 100-3.896H54.66zm11.784-17.371l-2.103-2.103a1.949 1.949 0 00-2.756 2.756l2.103 2.102a1.948 1.948 0 102.755-2.755zM93.484 50a1.948 1.948 0 00-1.948-1.948h-6.58V33.586a1.948 1.948 0 10-3.897 0V50c0 1.076.872 1.948 1.948 1.948h8.529A1.948 1.948 0 0093.484 50z" fill="#4D8F07"/><path d="M119.951 49.678a1.949 1.949 0 001.827-2.062c-1.24-20.446-18.27-36.461-38.771-36.461C61.587 11.155 44.16 28.58 44.16 50c0 21.42 17.426 38.846 38.846 38.846 19.189 0 35.564-14.06 38.412-33.033a1.948 1.948 0 10-3.853-.578c-2.559 17.045-17.277 29.714-34.56 29.714-19.27 0-34.948-15.678-34.948-34.948 0-19.271 15.678-34.95 34.949-34.95 18.444 0 33.766 14.408 34.881 32.801a1.95 1.95 0 002.063 1.826z" fill="#4D8F07"/><path d="M83.007 0a49.98 49.98 0 00-19.748 4.08H28.882a1.948 1.948 0 100 3.897H55.93a49.945 49.945 0 00-9.992 8.47 1.948 1.948 0 102.889 2.616 46.202 46.202 0 0134.18-15.166c25.422 0 46.104 20.681 46.104 46.103 0 25.421-20.681 46.103-46.103 46.103S36.903 75.422 36.903 50a45.934 45.934 0 017.354-24.987 1.948 1.948 0 10-3.273-2.115A49.818 49.818 0 0033.007 50c0 17.604 9.146 33.111 22.934 42.023H28.883a1.948 1.948 0 100 3.896h34.35A49.714 49.714 0 0083.006 100c27.57 0 50-22.43 50-50s-22.43-50-50-50z" fill="#4D8F07"/></svg>