<svg width="100" height="100" fill="none" xmlns="http://www.w3.org/2000/svg"><path d="M33.333 71.667H30A1.667 1.667 0 0030 75h3.333a1.667 1.667 0 000-3.333zm46.667 0H40A1.667 1.667 0 0040 75h40a1.667 1.667 0 000-3.333zm-46.667-10H30A1.667 1.667 0 0030 65h3.333a1.667 1.667 0 000-3.333zm46.667 0H40A1.667 1.667 0 0040 65h40a1.667 1.667 0 000-3.333zm-46.667-10H30A1.667 1.667 0 0030 55h3.333a1.667 1.667 0 000-3.333zm46.667 0H40A1.667 1.667 0 0040 55h40a1.667 1.667 0 000-3.333zm-46.667-10H30A1.667 1.667 0 0030 45h3.333a1.667 1.667 0 000-3.333zm46.667 0H40A1.667 1.667 0 0040 45h40a1.667 1.667 0 000-3.333zm-46.667-10H30A1.667 1.667 0 0030 35h3.333a1.667 1.667 0 000-3.333zm46.667 0H40A1.667 1.667 0 0040 35h40a1.667 1.667 0 000-3.333z" fill="#4D8F07"/><path d="M91.645 24.895a1.574 1.574 0 00-.085-.428c-.018-.054-.032-.105-.055-.157a1.666 1.666 0 00-.333-.488L67.838.488a1.666 1.666 0 00-.488-.333c-.052-.023-.103-.037-.155-.055a1.66 1.66 0 00-.432-.087c-.028.005-.06-.013-.096-.013H20c-.92 0-1.667.746-1.667 1.667v5H10c-.92 0-1.667.746-1.667 1.666v90c0 .92.747 1.667 1.667 1.667h70c.92 0 1.667-.746 1.667-1.667V90H90c.92 0 1.667-.746 1.667-1.667V25c0-.037-.019-.068-.022-.105zM68.333 5.69l17.644 17.643H68.333V5.69zm10 90.977H11.667V10h6.666v78.333c0 .92.747 1.667 1.667 1.667h58.333v6.667zm10-10H21.667V3.333H65V25c0 .92.746 1.667 1.667 1.667h21.666v60z" fill="#4D8F07"/><path d="M40 15H30c-.92 0-1.667.746-1.667 1.667v10c0 .92.747 1.666 1.667 1.666h10c.92 0 1.667-.746 1.667-1.666v-10c0-.92-.747-1.667-1.667-1.667zm-1.667 10h-6.666v-6.667h6.666V25z" fill="#4D8F07"/></svg>