<svg width="102" height="100" fill="none" xmlns="http://www.w3.org/2000/svg"><path d="M100.675 12.254L88.754.884C88.3.45 87.83 0 86.954 0H39.201a2.533 2.533 0 00-2.53 2.53v7.767l-16.83 2.885a2.493 2.493 0 00-2.023 2.876l.854 4.98c-5.47 1.841-11.087 3.739-16.509 5.687a2.504 2.504 0 00-1.496 3.182l10.785 29.982a1.48 1.48 0 102.784-1.001L3.61 29.348c5.108-1.828 10.4-3.618 15.57-5.358l5.083 29.634L30.11 87.75a2.505 2.505 0 002.876 2.028l15.84-2.718 12.38-2.122-18.618 6.692-14.68 5.278-11.402-31.713a1.48 1.48 0 10-2.784 1.001L25.285 98.36a2.499 2.499 0 002.34 1.64c.28 0 .565-.048.842-.15l15.122-5.436 34.337-12.342 6.56-1.124h14.49a2.535 2.535 0 002.53-2.535V13.92c0-.885-.48-1.337-.831-1.666zm-3.919.35h-7.585c-.355.003-1.185.009-1.395-.2-.049-.048-.105-.21-.105-.51l-.018-7.97 9.103 8.68zm1.792 65.385H39.63v-28.83a1.48 1.48 0 10-2.958 0v29.253a2.535 2.535 0 002.53 2.535h27.772l-18.647 3.197-15.38 2.64-5.77-33.662-6.364-37.105L36.672 13.3v28.997a1.48 1.48 0 002.958 0V2.958h45.063l.02 8.94c0 1.084.329 1.96.979 2.606.998.991 2.41 1.06 3.286 1.06h.214l9.356-.002V77.99z" fill="#4D8F07"/><path d="M46.76 22.969c0 .817.663 1.48 1.48 1.48h42.294a1.48 1.48 0 000-2.96H48.24a1.48 1.48 0 00-1.48 1.48zm43.774 9.029H48.24a1.48 1.48 0 000 2.959h42.294a1.48 1.48 0 000-2.959zm0 10.51H48.24a1.48 1.48 0 000 2.958h42.294a1.48 1.48 0 000-2.958zm0 10.509H48.24a1.48 1.48 0 000 2.958h42.294a1.48 1.48 0 000-2.959zm0 10.509H48.24a1.48 1.48 0 000 2.958h42.294a1.48 1.48 0 000-2.958z" fill="#4D8F07"/></svg>