<svg width="100" height="100" fill="none" xmlns="http://www.w3.org/2000/svg"><path d="M91.667 10h-8.334V6.667a6.667 6.667 0 00-13.333 0V10H56.667V6.667a6.667 6.667 0 00-13.334 0V10H30V6.667a6.667 6.667 0 00-13.333 0V10H8.333A8.333 8.333 0 000 18.333V85a8.333 8.333 0 008.333 8.333H55A1.666 1.666 0 1055 90H8.333a5.015 5.015 0 01-5-5V33.333h93.334v28.334a1.666 1.666 0 103.333 0V18.333A8.333 8.333 0 0091.667 10zM73.333 6.667a3.333 3.333 0 016.667 0v10a3.333 3.333 0 11-6.667 0v-10zm-26.666 0a3.333 3.333 0 016.666 0v10a3.333 3.333 0 01-6.666 0v-10zM20 6.667a3.333 3.333 0 016.667 0v10a3.333 3.333 0 01-6.667 0v-10zM96.667 30H3.333V18.333a5.015 5.015 0 015-5h8.334v3.334a6.667 6.667 0 0013.333 0v-3.334h13.333v3.334a6.666 6.666 0 1013.334 0v-3.334H70v3.334a6.666 6.666 0 1013.333 0v-3.334h8.334a5.016 5.016 0 015 5V30z" fill="#4D8F07"/><path d="M46.667 45a3.333 3.333 0 00-3.334-3.333h-6.666A3.333 3.333 0 0033.333 45v5a3.333 3.333 0 003.334 3.333h6.666A3.333 3.333 0 0046.667 50v-5zm-10 5v-5h6.666v5h-6.666zm-10-5a3.333 3.333 0 00-3.334-3.333h-6.666A3.333 3.333 0 0013.333 45v5a3.333 3.333 0 003.334 3.333h6.666A3.334 3.334 0 0026.667 50v-5zm-10 5v-5h6.666v5h-6.666zm66.666 3.333A3.333 3.333 0 0086.667 50v-5a3.333 3.333 0 00-3.334-3.333h-6.666A3.333 3.333 0 0073.333 45v5a3.333 3.333 0 003.334 3.333h6.666zM76.667 45h6.666v5h-6.666v-5zm-30 15a3.334 3.334 0 00-3.334-3.333h-6.666A3.333 3.333 0 0033.333 60v5a3.333 3.333 0 003.334 3.333h6.666A3.333 3.333 0 0046.667 65v-5zm-10 5v-5h6.666v5h-6.666zm-10-5a3.334 3.334 0 00-3.334-3.333h-6.666A3.334 3.334 0 0013.333 60v5a3.333 3.333 0 003.334 3.333h6.666A3.334 3.334 0 0026.667 65v-5zm-10 5v-5h6.666v5h-6.666zm26.666 6.667h-6.666A3.333 3.333 0 0033.333 75v5a3.333 3.333 0 003.334 3.333h6.666A3.333 3.333 0 0046.667 80v-5a3.334 3.334 0 00-3.334-3.333zM36.667 80v-5h6.666v5h-6.666zm20-26.667h6.666A3.333 3.333 0 0066.667 50v-5a3.333 3.333 0 00-3.334-3.333h-6.666A3.333 3.333 0 0053.333 45v5a3.333 3.333 0 003.334 3.333zm0-8.333h6.666v5h-6.666v-5zm-3.334 20a3.333 3.333 0 003.334 3.333 1.667 1.667 0 000-3.333v-5h6.666a1.667 1.667 0 000-3.333h-6.666A3.333 3.333 0 0053.333 60v5zm-30 6.667h-6.666A3.334 3.334 0 0013.333 75v5a3.333 3.333 0 003.334 3.333h6.666A3.334 3.334 0 0026.667 80v-5a3.334 3.334 0 00-3.334-3.333zM16.667 80v-5h6.666v5h-6.666z" fill="#4D8F07"/><path d="M78.333 56.667A21.667 21.667 0 10100 78.333a21.691 21.691 0 00-21.667-21.666zm0 40a18.333 18.333 0 1118.334-18.334 18.355 18.355 0 01-18.334 18.334z" fill="#4D8F07"/><path d="M87.963 71.347L75 84.31l-5.892-5.893a1.667 1.667 0 00-2.356 2.356l7.07 7.072a1.667 1.667 0 002.356 0L90.32 73.703a1.666 1.666 0 00-2.357-2.356z" fill="#4D8F07"/></svg>