<svg width="74" height="34" fill="none" xmlns="http://www.w3.org/2000/svg"><path d="M14.062 5.9c1.487 0 2.783.245 3.887.736 1.104.49 1.955 1.196 2.553 2.116.598.92.897 1.993.897 3.22s-.299 2.3-.897 3.22c-.598.92-1.449 1.625-2.553 2.116-1.104.49-2.4.736-3.887.736h-2.323V22H6.311V5.9h7.751zm-.345 7.958c.736 0 1.288-.161 1.656-.483.368-.337.552-.805.552-1.403s-.184-1.058-.552-1.38c-.368-.337-.92-.506-1.656-.506h-1.978v3.772h1.978zm16.362 4.094h-1.472V22H23.18V5.9h7.751c1.487 0 2.783.245 3.887.736 1.104.49 1.955 1.196 2.553 2.116.598.92.897 1.993.897 3.22 0 1.15-.26 2.154-.782 3.013-.521.859-1.273 1.541-2.254 2.047L38.612 22h-5.796l-2.737-4.048zm2.714-5.98c0-.598-.184-1.058-.552-1.38-.368-.337-.92-.506-1.656-.506h-1.978v3.772h1.978c.736 0 1.288-.161 1.656-.483.368-.337.552-.805.552-1.403zm15.965 10.396c-1.733 0-3.29-.36-4.67-1.081-1.38-.72-2.46-1.717-3.242-2.99-.782-1.288-1.173-2.737-1.173-4.347 0-1.61.39-3.051 1.173-4.324.782-1.288 1.863-2.292 3.243-3.013 1.38-.72 2.936-1.081 4.669-1.081 1.732 0 3.289.36 4.669 1.081 1.38.72 2.46 1.725 3.243 3.013.782 1.273 1.173 2.714 1.173 4.324 0 1.61-.391 3.059-1.173 4.347-.782 1.273-1.863 2.27-3.243 2.99-1.38.72-2.937 1.081-4.67 1.081zm0-4.393c.674 0 1.28-.161 1.817-.483a3.616 3.616 0 001.31-1.403c.323-.613.484-1.326.484-2.139 0-.813-.161-1.518-.483-2.116-.322-.613-.76-1.081-1.311-1.403a3.343 3.343 0 00-1.817-.506 3.46 3.46 0 00-1.84.506c-.537.322-.966.79-1.288 1.403-.322.598-.483 1.303-.483 2.116 0 .813.16 1.526.483 2.139a3.677 3.677 0 001.288 1.403 3.585 3.585 0 001.84.483zM65.24 9.994v2.76h6.716v4.094H65.24V22h-5.428V5.9H72.9v4.094h-7.659zM12.07 25v7h-.73v-6.36H6.91V32h-.73v-7h5.89zm7.482 0c.893 0 1.593.213 2.1.64.507.427.76 1.013.76 1.76 0 .747-.253 1.333-.76 1.76-.507.42-1.207.63-2.1.63h-1.88V32h-.74v-7h2.62zm-.02 4.14c.693 0 1.223-.15 1.59-.45.367-.307.55-.737.55-1.29 0-.567-.183-1-.55-1.3-.367-.307-.897-.46-1.59-.46h-1.86v3.5h1.86zM26.434 25h.73v5.8l4.48-5.8h.67v7h-.73v-5.79L27.104 32h-.67v-7zm15.692 6.36V32h-4.95v-7h4.8v.64h-4.06v2.49h3.62v.63h-3.62v2.6h4.21zM53.538 25v7h-.71v-5.6l-2.75 4.71h-.35l-2.75-4.68V32h-.71v-7h.61l3.04 5.19 3.01-5.19h.61zm7.179 3.79h-1.6V32h-.72v-7h.72v3.14h1.6l2.37-3.14h.8l-2.6 3.4 2.75 3.6h-.85l-2.47-3.21zm11.359 1.34h-3.9l-.84 1.87h-.77l3.2-7h.73l3.2 7h-.78l-.84-1.87zm-.27-.6l-1.68-3.76-1.68 3.76h3.36zM0 4h2v30H0z" fill="#fff"/></svg>